<svg width="27" height="28" viewBox="0 0 27 28" fill="none" xmlns="http://www.w3.org/2000/svg">
<path d="M13.323 6.80732C11.5069 6.80732 9.7653 7.52873 8.48118 8.81286C7.19706 10.097 6.47564 11.8386 6.47564 13.6546C6.47564 15.4707 7.19706 17.2123 8.48118 18.4964C9.7653 19.7806 11.5069 20.502 13.323 20.502C15.139 20.502 16.8806 19.7806 18.1648 18.4964C19.4489 17.2123 20.1703 15.4707 20.1703 13.6546C20.1703 11.8386 19.4489 10.097 18.1648 8.81286C16.8806 7.52873 15.139 6.80732 13.323 6.80732ZM13.323 18.1016C12.1432 18.1016 11.0117 17.6329 10.1775 16.7987C9.34325 15.9644 8.87458 14.833 8.87458 13.6532C8.87458 12.4734 9.34325 11.3419 10.1775 10.5077C11.0117 9.67344 12.1432 9.20477 13.323 9.20477C14.5028 9.20477 15.6342 9.67344 16.4685 10.5077C17.3027 11.3419 17.7714 12.4734 17.7714 13.6532C17.7714 14.833 17.3027 15.9644 16.4685 16.7987C15.6342 17.6329 14.5028 18.1016 13.323 18.1016Z" fill="white"/>
<path d="M20.4415 8.15191C21.3231 8.15191 22.0378 7.4372 22.0378 6.55558C22.0378 5.67395 21.3231 4.95925 20.4415 4.95925C19.5598 4.95925 18.8451 5.67395 18.8451 6.55558C18.8451 7.4372 19.5598 8.15191 20.4415 8.15191Z" fill="white"/>
<path d="M25.9603 4.93244C25.6175 4.04718 25.0936 3.24324 24.4222 2.5721C23.7508 1.90096 22.9467 1.37739 22.0613 1.03492C21.0252 0.64599 19.9307 0.43569 18.8242 0.412972C17.3982 0.350778 16.9465 0.333008 13.3304 0.333008C9.7142 0.333008 9.2507 0.333008 7.83652 0.412972C6.73092 0.434528 5.63713 0.644871 4.6024 1.03492C3.71677 1.37699 2.91243 1.90042 2.24098 2.57161C1.56953 3.24281 1.0458 4.04695 0.703391 4.93244C0.314386 5.96845 0.104568 7.06311 0.0829261 8.16952C0.0192507 9.59408 0 10.0457 0 13.6634C0 17.2795 -8.27842e-09 17.7401 0.0829261 19.1572C0.105138 20.2649 0.313934 21.3577 0.703391 22.3958C1.04676 23.281 1.571 24.0848 2.24261 24.7559C2.91422 25.427 3.71844 25.9506 4.60388 26.2933C5.63666 26.6979 6.73089 26.9232 7.83948 26.9597C9.26551 27.0219 9.71716 27.0411 13.3333 27.0411C16.9495 27.0411 17.413 27.0411 18.8272 26.9597C19.9335 26.9372 21.028 26.7274 22.0643 26.3392C22.9494 25.996 23.7533 25.4719 24.4247 24.8006C25.096 24.1293 25.62 23.3254 25.9633 22.4402C26.3527 21.4036 26.5615 20.3108 26.5837 19.2031C26.6474 17.7786 26.6667 17.3269 26.6667 13.7093C26.6667 10.0916 26.6667 9.63258 26.5837 8.21543C26.5665 7.09337 26.3556 5.98272 25.9603 4.93244ZM24.1567 19.0477C24.1471 19.9011 23.9914 20.7465 23.6961 21.5473C23.4738 22.1231 23.1333 22.6461 22.6967 23.0824C22.2601 23.5188 21.7369 23.8589 21.161 24.081C20.3691 24.3748 19.5326 24.5306 18.688 24.5415C17.2812 24.6067 16.8843 24.623 13.2771 24.623C9.66682 24.623 9.29809 24.623 7.86465 24.5415C7.02048 24.5312 6.1844 24.3754 5.39316 24.081C4.81517 23.8603 4.28995 23.5208 3.85146 23.0843C3.41297 22.6479 3.07098 22.1242 2.84762 21.5473C2.55656 20.7551 2.40088 19.9196 2.38709 19.0758C2.32341 17.669 2.3086 17.2721 2.3086 13.6649C2.3086 10.0561 2.3086 9.68737 2.38709 8.25245C2.39666 7.39953 2.55243 6.55457 2.84762 5.7543C3.29927 4.58593 4.22479 3.66634 5.39316 3.21913C6.18479 2.92614 7.02062 2.77039 7.86465 2.7586C9.27291 2.69492 9.6683 2.67715 13.2771 2.67715C16.8858 2.67715 17.256 2.67715 18.688 2.7586C19.5327 2.76876 20.3693 2.92455 21.161 3.21913C21.7369 3.44166 22.2599 3.78214 22.6965 4.21873C23.1331 4.65532 23.4736 5.17837 23.6961 5.7543C23.9872 6.54647 24.1429 7.38196 24.1567 8.2258C24.2203 9.63406 24.2366 10.0294 24.2366 13.6382C24.2366 17.2455 24.2366 17.6335 24.173 19.0491L24.1567 19.0477Z" fill="white"/>
</svg>
