<svg width="30" height="21" viewBox="0 0 30 21" fill="none" xmlns="http://www.w3.org/2000/svg">
<path d="M28.5234 3.9218C28.359 3.3186 28.0377 2.76851 27.5915 2.32626C27.1452 1.88402 26.5897 1.56505 25.9801 1.4011C23.7197 0.787346 14.6766 0.777355 14.6766 0.777355C14.6766 0.777355 5.63501 0.767363 3.37316 1.354C2.76393 1.52549 2.20951 1.84897 1.76312 2.29339C1.31673 2.7378 0.99337 3.28823 0.824078 3.89182C0.227944 6.12705 0.22217 10.7631 0.22217 10.7631C0.22217 10.7631 0.216396 15.4219 0.8082 17.6343C1.14019 18.8576 2.1145 19.8239 3.35296 20.1536C5.63645 20.7673 14.655 20.7773 14.655 20.7773C14.655 20.7773 23.698 20.7873 25.9584 20.2021C26.5682 20.0385 27.1243 19.7202 27.5717 19.2789C28.019 18.8375 28.3421 18.2884 28.5089 17.6857C29.1065 15.4519 29.1108 10.8173 29.1108 10.8173C29.1108 10.8173 29.1397 6.15702 28.5234 3.9218ZM11.784 15.058L11.7912 6.49388L19.3071 10.7831L11.784 15.058Z" fill="white"/>
</svg>
